PathFileType	4	(X/Y/Z)	 s02c0403.trc
DataRate	CameraRate	NumFrames	NumMarkers	Units	OrigDataRate	OrigDataStartFrame	OrigNumFrames
200	200	4	51	mm	200	251	2000
Frame#	Time	racr			lacr			c7			jug			rlel			rdr			llel			ldr			s2			lic			ric			lasi			rasi			rpsi			lpsi			rgt			lgt			rth1			rth2			rth3			rth4			rlfc			rmfc			rsh1			rsh2			rsh3			rsh4			rlmal			rmmal			rcal			rtoe			rmt5			rmt1			lth1			lth2			lth4			lth3			llfc			lmfc			lsh1			lsh2			lsh3			lsh4			llmal			lmmal			lcal			ltoe			lmt5			SBIKE			LBIKE			RBIKE			
		X1	Y1	Z1	X2	Y2	Z2	X3	Y3	Z3	X4	Y4	Z4	X5	Y5	Z5	X6	Y6	Z6	X7	Y7	Z7	X8	Y8	Z8	X9	Y9	Z9	X10	Y10	Z10	X11	Y11	Z11	X12	Y12	Z12	X13	Y13	Z13	X14	Y14	Z14	X15	Y15	Z15	X16	Y16	Z16	X17	Y17	Z17	X18	Y18	Z18	X19	Y19	Z19	X20	Y20	Z20	X21	Y21	Z21	X22	Y22	Z22	X23	Y23	Z23	X24	Y24	Z24	X25	Y25	Z25	X26	Y26	Z26	X27	Y27	Z27	X28	Y28	Z28	X29	Y29	Z29	X30	Y30	Z30	X31	Y31	Z31	X32	Y32	Z32	X33	Y33	Z33	X34	Y34	Z34	X35	Y35	Z35	X36	Y36	Z36	X37	Y37	Z37	X38	Y38	Z38	X39	Y39	Z39	X40	Y40	Z40	X41	Y41	Z41	X42	Y42	Z42	X43	Y43	Z43	X44	Y44	Z44	X45	Y45	Z45	X46	Y46	Z46	X47	Y47	Z47	X48	Y48	Z48	X49	Y49	Z49	X50	Y50	Z50	X51	Y51	Z51	
251	1.2550	458.798617	1317.099387	-135.415800	469.084330	1324.666999	-486.304195	456.214925	1378.106020	-317.783599	436.829385	1241.664338	-311.059504	583.802765	1072.910179	-123.095204	716.386794	887.375937	-125.888556	567.786861	1065.723408	-521.820385	702.744145	883.069081	-496.753846	-5.234891	1106.929299	-316.555947	133.613507	1096.479237	-458.117536	120.452621	1110.276582	-173.796766	184.043643	1066.791002	-431.449462	174.981701	1093.924257	-206.794877	8.438631	1127.005609	-281.860210	16.017078	1130.246481	-365.142044	103.039164	1033.077852	-131.294482	88.124060	1002.807817	-489.468952	193.191882	1013.647571	-129.322482	280.494634	1004.861056	-139.620765	353.657812	966.236968	-116.475093	288.985531	1026.872930	-169.439476	477.257722	880.375656	-149.971719	470.333726	859.741690	-261.341714	458.829945	768.642811	-133.162253	439.144090	682.192777	-151.546614	387.444704	614.610121	-143.247982	453.595241	678.495329	-187.547511	327.261952	510.052102	-147.990254	334.933416	530.491720	-228.825807	251.938030	461.369486	-190.420833	536.857044	452.373407	-187.037813	428.648902	435.631007	-128.598162	455.180948	450.459644	-236.534405	192.823799	908.640601	-507.338946	260.819909	854.094431	-506.699159	288.235125	873.875398	-493.155668	291.557745	770.294252	-506.747117	345.818711	683.863158	-485.415397	352.797199	653.903090	-381.826962	295.750683	591.603860	-503.912388	266.187937	511.752334	-487.396970	197.402088	453.568037	-487.949006	285.493413	502.438636	-452.186717	127.156323	379.190894	-468.884511	144.461144	366.531963	-394.175424	50.300537	371.202771	-427.600584	266.287200	182.971727	-441.712470	167.826840	232.187416	-500.462272	-126.513473	872.018543	-308.287567	37.228273	86.412730	-514.187448	33.881410	83.319205	-114.145710	
252	1.2600	458.777786	1317.061621	-135.399784	469.051927	1324.650192	-486.349615	456.245121	1378.102577	-317.801366	436.851416	1241.697818	-311.078149	583.797472	1072.888383	-123.054863	716.386026	887.360064	-125.872468	567.791287	1065.712127	-521.831123	702.744145	883.069084	-496.753845	-5.273818	1107.003158	-316.497189	133.559347	1096.540622	-458.082065	120.479436	1110.283365	-173.819726	183.988998	1066.820091	-431.508332	174.975208	1093.934972	-206.817972	8.122992	1127.206342	-281.768632	15.966956	1130.316684	-365.081519	103.042627	1033.101865	-131.273074	88.020574	1002.866519	-489.473367	193.189716	1013.643912	-129.323914	280.486225	1004.845199	-139.594565	353.643161	966.175615	-116.473199	288.977588	1026.857074	-169.425243	477.226246	880.337999	-149.991987	470.295506	859.719304	-261.370300	458.771459	768.619523	-133.184029	439.101778	682.185669	-151.559171	387.362536	614.642529	-143.295533	453.527762	678.442395	-187.582141	327.153016	510.058449	-148.003872	334.842139	530.482803	-228.854706	251.860456	461.323250	-190.401391	536.790324	452.462468	-187.047910	428.591555	435.640884	-128.610548	455.090944	450.492370	-236.538161	192.748473	908.720126	-507.340800	260.767334	854.228542	-506.681571	288.187551	874.008972	-493.121808	291.569106	770.455735	-506.711335	345.844746	683.994514	-485.412630	352.830110	654.024677	-381.832756	295.844008	591.705946	-503.897435	266.330966	511.842760	-487.406979	197.587566	453.603938	-487.977230	285.680922	502.556481	-452.212625	127.384832	379.180870	-468.917941	144.679517	366.544483	-394.192881	50.572780	371.264226	-427.586658	266.318905	182.789229	-441.710509	167.902108	232.125609	-500.481757	-126.506400	872.008985	-308.235595	37.241862	86.418937	-514.183834	33.312201	83.725237	-114.201528	
253	1.2650	458.776637	1317.046267	-135.390008	469.039174	1324.644765	-486.408299	456.276297	1378.089039	-317.820945	436.847693	1241.715039	-311.091736	583.811055	1072.885288	-123.026769	716.377815	887.354207	-125.859845	567.750970	1065.687686	-521.868567	702.750369	883.087627	-496.802603	-5.342029	1107.119178	-316.439111	133.482042	1096.594402	-458.081946	120.527369	1110.313288	-173.806982	183.936000	1066.860455	-431.570351	174.998248	1093.925175	-206.925086	5.058789	1128.291899	-279.887631	15.531762	1130.142496	-366.034778	103.034968	1033.132674	-131.265494	87.921609	1002.948090	-489.462295	193.164073	1013.632255	-129.312093	280.453245	1004.839613	-139.595148	353.604308	966.152904	-116.474271	288.945818	1026.856008	-169.413373	477.172671	880.302977	-150.030441	470.223760	859.713892	-261.394845	458.729798	768.590092	-133.194353	439.008198	682.181800	-151.592255	387.295222	614.636905	-143.314078	453.465933	678.432024	-187.596338	327.067253	510.022014	-148.003439	334.717404	530.474088	-228.863429	251.781044	461.273158	-190.401797	536.708468	452.550808	-187.055628	428.526470	435.689690	-128.607668	455.037750	450.540677	-236.507467	192.704354	908.818956	-507.309499	260.771348	854.407338	-506.645991	288.159432	874.173947	-493.047589	291.637502	770.648398	-506.669260	345.882065	684.147014	-485.436545	352.899793	654.183286	-381.845159	295.943753	591.816978	-503.903983	266.484409	511.931302	-487.393672	197.786316	453.642600	-487.984800	285.858347	502.681723	-452.218201	127.634803	379.162241	-468.960707	144.987692	366.462567	-394.233410	50.857045	371.342959	-427.573935	266.345118	182.609206	-441.721057	168.037292	232.117462	-500.568091	-126.503898	872.015387	-308.243305	37.224044	86.418755	-514.180506	33.867526	83.311406	-114.138283	
254	1.2700	458.758983	1317.042768	-135.409398	469.024470	1324.660666	-486.459983	456.294725	1378.095200	-317.847337	436.867145	1241.744472	-311.118960	583.814169	1072.881585	-123.001185	716.380054	887.368526	-125.842469	567.721355	1065.678264	-521.897149	702.748229	883.101581	-496.795699	-5.408697	1107.216594	-316.347124	133.424706	1096.659448	-458.067911	120.554295	1110.316642	-173.837434	183.883973	1066.915603	-431.633968	174.994319	1093.928696	-206.965827	5.065623	1128.385751	-279.818792	15.502114	1130.198969	-365.976548	103.003162	1033.162720	-131.230270	87.839320	1003.028519	-489.446044	193.111770	1013.636821	-129.328342	280.425707	1004.840235	-139.586819	353.584628	966.155246	-116.479437	288.929155	1026.857792	-169.422563	477.125238	880.286703	-150.054245	470.176680	859.689902	-261.409927	458.645153	768.599803	-133.199442	438.959457	682.174341	-151.600834	387.202362	614.621311	-143.325861	453.378960	678.441773	-187.644016	327.007660	509.990603	-148.041490	334.653932	530.515284	-228.887505	251.685889	461.235242	-190.399131	536.639060	452.649587	-187.059480	428.494875	435.709684	-128.620777	454.968957	450.567453	-236.526389	192.691090	908.953144	-507.281725	260.784498	854.589262	-506.576914	288.152964	874.369283	-492.983521	291.715681	770.876470	-506.640806	345.918572	684.307922	-485.466920	352.948042	654.351374	-381.858137	296.035763	591.949770	-503.917623	266.636762	512.019696	-487.386838	197.995279	453.699716	-488.028108	286.022301	502.784299	-452.243920	127.899163	379.155468	-468.991598	145.309440	366.430041	-394.305334	51.152584	371.422582	-427.589316	266.371990	182.396772	-441.681770	168.141259	232.041725	-500.574563	-126.500509	872.008281	-308.244388	37.229595	86.424879	-514.186888	33.867166	83.324880	-114.149334	
